<svg id="Layer_1" data-name="Layer 1" xmlns="http://www.w3.org/2000/svg" viewBox="0 0 512 512"><title>icon</title><rect x="112" y="16" width="32" height="32" style="fill:#fff"/><rect x="176" y="16" width="32" height="32" style="fill:#fff"/><rect x="240" y="16" width="32" height="32" style="fill:#fff"/><rect x="304" y="16" width="32" height="32" style="fill:#fff"/><rect x="368" y="16" width="32" height="32" style="fill:#fff"/><rect x="112" y="48" width="32" height="32" style="fill:#fff"/><rect x="176" y="48" width="32" height="32" style="fill:#fff"/><rect x="240" y="48" width="32" height="32" style="fill:#fff"/><rect x="304" y="48" width="32" height="32" style="fill:#fff"/><rect x="368" y="48" width="32" height="32" style="fill:#fff"/><rect x="80" y="80" width="32" height="32" style="fill:#fff"/><rect x="112" y="80" width="32" height="32" style="fill:#fff"/><rect x="144" y="80" width="32" height="32" style="fill:#fff"/><rect x="176" y="80" width="32" height="32" style="fill:#fff"/><rect x="208" y="80" width="32" height="32" style="fill:#fff"/><rect x="240" y="80" width="32" height="32" style="fill:#fff"/><rect x="272" y="80" width="32" height="32" style="fill:#fff"/><rect x="304" y="80" width="32" height="32" style="fill:#fff"/><rect x="336" y="80" width="32" height="32" style="fill:#fff"/><rect x="368" y="80" width="32" height="32" style="fill:#fff"/><rect x="400" y="80" width="32" height="32" style="fill:#fff"/><rect x="16" y="112" width="32" height="32" style="fill:#fff"/><rect x="48" y="112" width="32" height="32" style="fill:#fff"/><rect x="80" y="112" width="32" height="32" style="fill:#fff"/><rect x="400" y="112" width="32" height="32" style="fill:#fff"/><rect x="432" y="112" width="32" height="32" style="fill:#fff"/><rect x="464" y="112" width="32" height="32" style="fill:#fff"/><rect x="80" y="144" width="32" height="32" style="fill:#fff"/><rect x="144" y="144" width="32" height="32" style="fill:#fff"/><rect x="176" y="144" width="32" height="32" style="fill:#fff"/><rect x="208" y="144" width="32" height="32" style="fill:#fff"/><rect x="240" y="144" width="32" height="32" style="fill:#fff"/><rect x="272" y="144" width="32" height="32" style="fill:#fff"/><rect x="336" y="144" width="32" height="32" style="fill:#fff"/><rect x="400" y="144" width="32" height="32" style="fill:#fff"/><rect x="16" y="176" width="32" height="32" style="fill:#fff"/><rect x="48" y="176" width="32" height="32" style="fill:#fff"/><rect x="80" y="176" width="32" height="32" style="fill:#fff"/><rect x="144" y="176" width="32" height="32" style="fill:#fff"/><rect x="208" y="176" width="32" height="32" style="fill:#fff"/><rect x="272" y="176" width="32" height="32" style="fill:#fff"/><rect x="400" y="176" width="32" height="32" style="fill:#fff"/><rect x="432" y="176" width="32" height="32" style="fill:#fff"/><rect x="464" y="176" width="32" height="32" style="fill:#fff"/><rect x="80" y="208" width="32" height="32" style="fill:#fff"/><rect x="144" y="208" width="32" height="32" style="fill:#fff"/><rect x="208" y="208" width="32" height="32" style="fill:#fff"/><rect x="272" y="208" width="32" height="32" style="fill:#fff"/><rect x="336" y="208" width="32" height="32" style="fill:#fff"/><rect x="400" y="208" width="32" height="32" style="fill:#fff"/><rect x="16" y="240" width="32" height="32" style="fill:#fff"/><rect x="48" y="240" width="32" height="32" style="fill:#fff"/><rect x="80" y="240" width="32" height="32" style="fill:#fff"/><rect x="336" y="240" width="32" height="32" style="fill:#fff"/><rect x="400" y="240" width="32" height="32" style="fill:#fff"/><rect x="432" y="240" width="32" height="32" style="fill:#fff"/><rect x="464" y="240" width="32" height="32" style="fill:#fff"/><rect x="80" y="272" width="32" height="32" style="fill:#fff"/><rect x="144" y="272" width="32" height="32" style="fill:#fff"/><rect x="176" y="272" width="32" height="32" style="fill:#fff"/><rect x="208" y="272" width="32" height="32" style="fill:#fff"/><rect x="240" y="272" width="32" height="32" style="fill:#fff"/><rect x="272" y="272" width="32" height="32" style="fill:#fff"/><rect x="336" y="272" width="32" height="32" style="fill:#fff"/><rect x="400" y="272" width="32" height="32" style="fill:#fff"/><rect x="16" y="304" width="32" height="32" style="fill:#fff"/><rect x="48" y="304" width="32" height="32" style="fill:#fff"/><rect x="80" y="304" width="32" height="32" style="fill:#fff"/><rect x="144" y="304" width="32" height="32" style="fill:#fff"/><rect x="272" y="304" width="32" height="32" style="fill:#fff"/><rect x="336" y="304" width="32" height="32" style="fill:#fff"/><rect x="400" y="304" width="32" height="32" style="fill:#fff"/><rect x="432" y="304" width="32" height="32" style="fill:#fff"/><rect x="464" y="304" width="32" height="32" style="fill:#fff"/><rect x="80" y="336" width="32" height="32" style="fill:#fff"/><rect x="144" y="336" width="32" height="32" style="fill:#fff"/><rect x="176" y="336" width="32" height="32" style="fill:#fff"/><rect x="208" y="336" width="32" height="32" style="fill:#fff"/><rect x="240" y="336" width="32" height="32" style="fill:#fff"/><rect x="272" y="336" width="32" height="32" style="fill:#fff"/><rect x="336" y="336" width="32" height="32" style="fill:#fff"/><rect x="400" y="336" width="32" height="32" style="fill:#fff"/><rect x="16" y="368" width="32" height="32" style="fill:#fff"/><rect x="48" y="368" width="32" height="32" style="fill:#fff"/><rect x="80" y="368" width="32" height="32" style="fill:#fff"/><rect x="400" y="368" width="32" height="32" style="fill:#fff"/><rect x="432" y="368" width="32" height="32" style="fill:#fff"/><rect x="464" y="368" width="32" height="32" style="fill:#fff"/><rect x="80" y="400" width="32" height="32" style="fill:#fff"/><rect x="112" y="400" width="32" height="32" style="fill:#fff"/><rect x="144" y="400" width="32" height="32" style="fill:#fff"/><rect x="176" y="400" width="32" height="32" style="fill:#fff"/><rect x="208" y="400" width="32" height="32" style="fill:#fff"/><rect x="240" y="400" width="32" height="32" style="fill:#fff"/><rect x="272" y="400" width="32" height="32" style="fill:#fff"/><rect x="304" y="400" width="32" height="32" style="fill:#fff"/><rect x="336" y="400" width="32" height="32" style="fill:#fff"/><rect x="368" y="400" width="32" height="32" style="fill:#fff"/><rect x="400" y="400" width="32" height="32" style="fill:#fff"/><rect x="112" y="432" width="32" height="32" style="fill:#fff"/><rect x="176" y="432" width="32" height="32" style="fill:#fff"/><rect x="240" y="432" width="32" height="32" style="fill:#fff"/><rect x="304" y="432" width="32" height="32" style="fill:#fff"/><rect x="368" y="432" width="32" height="32" style="fill:#fff"/><rect x="112" y="464" width="32" height="32" style="fill:#fff"/><rect x="176" y="464" width="32" height="32" style="fill:#fff"/><rect x="240" y="464" width="32" height="32" style="fill:#fff"/><rect x="304" y="464" width="32" height="32" style="fill:#fff"/><rect x="368" y="464" width="32" height="32" style="fill:#fff"/></svg>